<svg width="68" height="72" viewBox="0 0 68 72" fill="none" xmlns="http://www.w3.org/2000/svg">
<g clip-path="url(#clip0_1_2)">
<rect width="68" height="72" fill="#FAFAF9"/>
<path d="M24.8846 9.39606H55.8846C60.8551 9.39606 64.8846 13.4255 64.8846 18.3961V58.3961C64.8846 63.3666 60.8551 67.3961 55.8846 67.3961H24.8846C19.914 67.3961 15.8846 63.3666 15.8846 58.3961V18.3961C15.8846 13.4255 19.914 9.39606 24.8846 9.39606Z" fill="#FFEDED" stroke="black" stroke-width="2"/>
<path d="M26.8846 13.396H53.8846C57.7506 13.396 60.8846 16.53 60.8846 20.396V56.396C60.8846 60.262 57.7506 63.396 53.8846 63.396H26.8846C23.0186 63.396 19.8846 60.262 19.8846 56.396V20.396C19.8846 16.53 23.0186 13.396 26.8846 13.396Z" fill="#D7C3F1" stroke="black" stroke-width="2"/>
<path d="M9.78332 14.251L39.1056 4.19103C43.8072 2.57801 48.9262 5.08176 50.5392 9.78332L63.5198 47.6185C65.1328 52.3201 62.629 57.4391 57.9275 59.0521L28.6052 69.1121C23.9036 70.7251 18.7847 68.2213 17.1716 63.5198L4.19103 25.6846C2.57801 20.983 5.08176 15.864 9.78332 14.251Z" fill="#FFEDED" stroke="black" stroke-width="2"/>
<path d="M12.9731 17.3855L38.5119 8.62359C42.1686 7.36902 46.1501 9.31638 47.4046 12.9732L59.0872 47.0249C60.3418 50.6816 58.3944 54.663 54.7376 55.9176L29.1989 64.6795C25.5421 65.9341 21.5607 63.9867 20.3061 60.33L8.62354 26.2783C7.36897 22.6215 9.31633 18.6401 12.9731 17.3855Z" fill="#D7C3F1" stroke="black" stroke-width="2"/>
</g>
<defs>
<clipPath id="clip0_1_2">
<rect width="68" height="72" fill="white"/>
</clipPath>
</defs>
</svg>
