<svg width="68" height="72" viewBox="0 0 68 72" fill="none" xmlns="http://www.w3.org/2000/svg">
<path d="M15.3846 12.3961C15.3846 10.4631 16.9516 8.89606 18.8846 8.89606H61.8846C63.8176 8.89606 65.3846 10.4631 65.3846 12.3961V64.3961C65.3846 66.3291 63.8176 67.8961 61.8846 67.8961H18.8846C16.9516 67.8961 15.3846 66.3291 15.3846 64.3961V12.3961Z" fill="#FFEDED" stroke="black"/>
<path d="M19.3846 15.396C19.3846 14.0153 20.5039 12.896 21.8846 12.896H58.8846C60.2653 12.896 61.3846 14.0153 61.3846 15.396V61.396C61.3846 62.7767 60.2653 63.896 58.8846 63.896H21.8846C20.5039 63.896 19.3846 62.7767 19.3846 61.396V15.396Z" fill="#D7C3F1" stroke="black"/>
<path d="M1.771 20.1715C1.14371 18.3431 2.1174 16.3524 3.94578 15.7251L44.6186 1.771C46.447 1.14371 48.4377 2.11739 49.065 3.94578L65.9398 53.1316C66.5671 54.9599 65.5934 56.9507 63.765 57.5779L23.0922 71.5321C21.2638 72.1594 19.2731 71.1857 18.6458 69.3573L1.771 20.1715Z" fill="#FFEDED" stroke="black"/>
<path d="M6.52803 21.7111C6.07997 20.4051 6.77545 18.9832 8.08144 18.5351L43.079 6.52808C44.385 6.08001 45.8069 6.7755 46.255 8.08149L61.1827 51.592C61.6308 52.898 60.9353 54.3199 59.6293 54.768L24.6317 66.775C23.3257 67.2231 21.9038 66.5276 21.4557 65.2216L6.52803 21.7111Z" fill="#D7C3F1" stroke="black"/>
<g clip-path="url(#clip0_10_20)">
<path d="M26.5015 57.0658L52.5126 48.1399C53.8186 47.6918 54.514 46.2698 54.0658 44.9638L45.1399 18.9527C44.6918 17.6467 43.2698 16.9513 41.9638 17.3995L15.9527 26.3254C14.6468 26.7735 13.9514 28.1955 14.3995 29.5015L23.3254 55.5126C23.7736 56.8186 25.1955 57.514 26.5015 57.0658Z" stroke="black" stroke-linecap="round" stroke-linejoin="round"/>
<path d="M27.0926 56.8629L38.7718 34.6705C38.9235 34.4207 39.158 34.2319 39.4345 34.137C39.711 34.0421 40.012 34.0472 40.2851 34.1512L51.5097 37.5151" stroke="black" stroke-linecap="round" stroke-linejoin="round"/>
<path d="M27.5096 36.8966C29.4686 36.2244 30.5117 34.0914 29.8394 32.1325C29.1672 30.1735 27.0342 29.1304 25.0753 29.8027C23.1163 30.4749 22.0733 32.6079 22.7455 34.5668C23.4177 36.5258 25.5507 37.5688 27.5096 36.8966Z" stroke="black" stroke-linecap="round" stroke-linejoin="round"/>
</g>
<defs>
<clipPath id="clip0_10_20">
<rect width="35" height="35" fill="white" transform="translate(12 26.3602) rotate(-18.94)"/>
</clipPath>
</defs>
</svg>
