<svg width="68" height="72" viewBox="0 0 68 72" fill="none" xmlns="http://www.w3.org/2000/svg">
<rect width="68" height="72" fill="#1E1E1E"/>
<g clip-path="url(#clip0_0_1)">
<path d="M15.3846 12.3961C15.3846 10.4631 16.9516 8.89606 18.8846 8.89606H61.8846C63.8176 8.89606 65.3846 10.4631 65.3846 12.3961V64.3961C65.3846 66.3291 63.8176 67.8961 61.8846 67.8961H18.8846C16.9516 67.8961 15.3846 66.3291 15.3846 64.3961V12.3961Z" fill="#FFEDED" stroke="black"/>
<path d="M19.3846 15.396C19.3846 14.0153 20.5039 12.896 21.8846 12.896H58.8846C60.2653 12.896 61.3846 14.0153 61.3846 15.396V61.396C61.3846 62.7767 60.2653 63.896 58.8846 63.896H21.8846C20.5039 63.896 19.3846 62.7767 19.3846 61.396V15.396Z" fill="#D7C3F1" stroke="black"/>
<path d="M1.771 20.1715C1.14371 18.3431 2.1174 16.3524 3.94578 15.7251L44.6186 1.771C46.447 1.14371 48.4377 2.11739 49.065 3.94578L65.9398 53.1316C66.5671 54.9599 65.5934 56.9507 63.765 57.5779L23.0922 71.5321C21.2638 72.1594 19.2731 71.1857 18.6458 69.3573L1.771 20.1715Z" fill="#FFEDED" stroke="black"/>
<path d="M6.52803 21.7111C6.07997 20.4051 6.77545 18.9832 8.08144 18.5351L43.079 6.52808C44.385 6.08001 45.8069 6.7755 46.255 8.08149L61.1827 51.592C61.6308 52.898 60.9353 54.3199 59.6293 54.768L24.6317 66.775C23.3257 67.2231 21.9038 66.5276 21.4557 65.2216L6.52803 21.7111Z" fill="#D7C3F1" stroke="black"/>
</g>
<defs>
<clipPath id="clip0_0_1">
<rect width="68" height="72" fill="white"/>
</clipPath>
</defs>
</svg>
